<?xml version="1.0" encoding="UTF-8"?>
<!DOCTYPE svg PUBLIC "-//W3C//DTD SVG 1.1//EN" "http://www.w3.org/Graphics/SVG/1.1/DTD/svg11.dtd">
<svg xmlns="http://www.w3.org/2000/svg" version="1.1" width="512px" height="512px" style="shape-rendering:geometricPrecision; text-rendering:geometricPrecision; image-rendering:optimizeQuality; fill-rule:evenodd; clip-rule:evenodd" xmlns:xlink="http://www.w3.org/1999/xlink">
<g><path style="opacity:0.997" fill="#d80027" d="M 232.5,-0.5 C 247.833,-0.5 263.167,-0.5 278.5,-0.5C 368.144,10.3879 435.644,54.7213 481,132.5C 497.695,163.971 507.861,197.304 511.5,232.5C 511.5,247.833 511.5,263.167 511.5,278.5C 500.612,368.144 456.279,435.644 378.5,481C 347.029,497.695 313.696,507.861 278.5,511.5C 263.167,511.5 247.833,511.5 232.5,511.5C 142.856,500.612 75.3562,456.279 30,378.5C 13.3053,347.029 3.1386,313.696 -0.5,278.5C -0.5,263.167 -0.5,247.833 -0.5,232.5C 10.3875,142.857 54.7208,75.3573 132.5,30C 163.971,13.3053 197.304,3.1386 232.5,-0.5 Z"/></g>
<g><path style="opacity:1" fill="#fed743" d="M 302.5,115.5 C 302.401,124.012 302.401,132.679 302.5,141.5C 310.167,144.667 317.833,147.833 325.5,151C 317.494,153.168 309.494,155.335 301.5,157.5C 300.749,158.376 300.249,159.376 300,160.5C 299.57,168.188 298.903,175.854 298,183.5C 293.875,176.081 289.375,168.914 284.5,162C 276.117,163.513 267.784,165.18 259.5,167C 264.644,160.355 269.978,153.855 275.5,147.5C 271.417,140.332 267.084,133.332 262.5,126.5C 262.833,126.167 263.167,125.833 263.5,125.5C 271.298,129.248 279.298,132.082 287.5,134C 292.388,127.711 297.388,121.544 302.5,115.5 Z"/></g>
<g><path style="opacity:1" fill="#fed943" d="M 138.5,156.5 C 139.497,156.47 140.164,156.97 140.5,158C 147.401,179.537 154.401,201.037 161.5,222.5C 185.16,223.333 208.826,223.833 232.5,224C 213.2,237.64 194.2,251.64 175.5,266C 182.914,288.391 189.914,310.557 196.5,332.5C 177.676,318.588 158.676,304.922 139.5,291.5C 120.755,305.289 101.922,318.956 83,332.5C 89.0296,311.072 95.6963,289.738 103,268.5C 103.667,267.167 103.667,265.833 103,264.5C 84.4113,251.122 65.9113,237.622 47.5,224C 70.8405,223.833 94.1738,223.333 117.5,222.5C 125.314,200.727 132.314,178.727 138.5,156.5 Z"/></g>
<g><path style="opacity:1" fill="#fed843" d="M 339.5,182.5 C 345.548,188.717 352.048,194.383 359,199.5C 365.984,195.841 372.984,192.174 380,188.5C 380.122,190.169 379.788,191.835 379,193.5C 376.031,199.272 373.197,205.105 370.5,211C 375.788,217.29 381.455,223.29 387.5,229C 379.158,228.415 370.825,227.749 362.5,227C 358.524,234.453 354.69,241.953 351,249.5C 349.714,241.114 348.214,232.781 346.5,224.5C 337.941,222.491 329.274,220.991 320.5,220C 327.709,215.965 335.042,212.132 342.5,208.5C 342.833,207.5 343.167,206.5 343.5,205.5C 342.272,197.801 340.939,190.134 339.5,182.5 Z"/></g>
<g><path style="opacity:1" fill="#fed643" d="M 356.5,269.5 C 357.497,269.47 358.164,269.97 358.5,271C 361.143,278.427 363.476,285.927 365.5,293.5C 374.173,293.334 382.84,293.5 391.5,294C 384.614,298.936 377.947,304.103 371.5,309.5C 374.538,317.441 377.038,325.441 379,333.5C 372,328.5 365,323.5 358,318.5C 351.833,323.333 345.667,328.167 339.5,333C 338.517,333.591 337.85,333.257 337.5,332C 339.988,324.714 342.321,317.38 344.5,310C 337.711,304.433 330.711,299.1 323.5,294C 332.167,293.667 340.833,293.333 349.5,293C 352.336,285.324 354.669,277.491 356.5,269.5 Z"/></g>
<g><path style="opacity:1" fill="#fed743" d="M 298.5,326.5 C 299.867,335.299 300.534,344.299 300.5,353.5C 308.787,354.765 316.787,356.931 324.5,360C 317.02,363.41 309.353,366.243 301.5,368.5C 301.906,377.174 302.073,385.841 302,394.5C 297.004,387.508 291.338,381.174 285,375.5C 277.197,378.765 269.364,381.598 261.5,384C 266.291,376.919 270.958,369.752 275.5,362.5C 270.741,355.985 265.741,349.652 260.5,343.5C 261,343.167 261.5,342.833 262,342.5C 269.289,344.656 276.623,346.656 284,348.5C 289.422,341.574 294.255,334.24 298.5,326.5 Z"/></g>
</svg>
